# xmcd
#
# Track frame offsets: 
#        150
#        12491
#        23482
#        35204
#        46492
#        58867
#        70720
#        81115
#        91299
#        104027
#        116265
#        128971
#        141706
#        155859
#        169867
#        178856
#        189376
#        202532
#        213597
#        224716
#        235897
#        247287
#        259230
#        268190
#        277392
#        288414
#        299610
#        307681
#
# Disc length: 4234 seconds
#
# Revision: 0
# Processed by: cddbd v1.5.2PL0 Copyright (c) Steve Scherf et al.
# Submitted via: ExactAudioCopy v1.3
#
DISCID=c710881c
DTITLE=Spade Cooley - The Spade Cooley Collection 1945-52_CD2
DYEAR=2019
DGENRE=Western Swing
TTITLE0=Spade Cooley And His Band - Big Chief Boogie
TTITLE1=Spade Cooley And His Band - Fickle Woman
TTITLE2=Spade Cooley And His Band - Texas Steel Guitar
TTITLE3=Spade Cooley and His Orchestra - You'll Rue the Day
TTITLE4=Spade Cooley and His Orchestra - Swinging the Devil's Dream
TTITLE5=Spade Cooley And His Band - Four Fiddle Polka 
TTITLE6=Spade Cooley And His Band - Call Me Darling, Do
TTITLE7=Spade Cooley And His Band - Texas Playboy Rag 
TTITLE8=Spade Cooley And His Band - Flop-Eared Mule 
TTITLE9=Spade Cooley And His Band - Wake Up, Susan 
TTITLE10=Spade Cooley And His Band - Ida Red 
TTITLE11=Spade Cooley And His Band - You Can't Take Texas Out Of Me 
TTITLE12=Spade Cooley And His Band - The Last Round Up
TTITLE13=Spade Cooley And His Band - Wagon Wheels
TTITLE14=Spade Cooley and His Orchestra - Lucky Leather Breeches
TTITLE15=Spade Cooley and His Orchestra - Honky Tonkin'
TTITLE16=Spade Cooley and His Orchestra - Hillbilly Fever
TTITLE17=Spade Cooley and His Orchestra - Mountain Boys Have Fun With Mo
TTITLE17=untain Girls 
TTITLE18=Spade Cooley and His Orchestra - Nine Tenths Of Tennessee River
TTITLE19=Spade Cooley And His Fiddlin' Friends - Chew Tobacco Rag
TTITLE20=Spade Cooley and His String Orchestra - Tuesday Two-Step
TTITLE21=Spade Cooley and His String Orchestra - Three Fiddle Rag
TTITLE22=Spade Cooley And His Fiddlin' Friends - Hitsitty Hotsitty
TTITLE23=Spade Cooley And His Fiddlin' Friends - Down Yonder
TTITLE24=Spade Cooley And His Fiddlin' Friends - Horse Hair Boogie
TTITLE25=Spade Cooley And His Fiddlin' Friends - The Cowboy Waltz 
TTITLE26=Spade Cooley and His Orchestra - Carmen's Boogie
TTITLE27=Spade Cooley and His Orchestra - One Sweet Letter From You 
EXTD=
EXTT0=
EXTT1=
EXTT2=
EXTT3=
EXTT4=
EXTT5=
EXTT6=
EXTT7=
EXTT8=
EXTT9=
EXTT10=
EXTT11=
EXTT12=
EXTT13=
EXTT14=
EXTT15=
EXTT16=
EXTT17=
EXTT18=
EXTT19=
EXTT20=
EXTT21=
EXTT22=
EXTT23=
EXTT24=
EXTT25=
EXTT26=
EXTT27=
PLAYORDER=
